<?xml version="1.0" encoding="utf-8"?>
<!-- Generator: Adobe Illustrator 22.0.1, SVG Export Plug-In . SVG Version: 6.00 Build 0)  -->
<svg version="1.1" id="Layer_1" xmlns="http://www.w3.org/2000/svg" xmlns:xlink="http://www.w3.org/1999/xlink" x="0px" y="0px"
	 viewBox="0 0 537.3 62.8" style="enable-background:new 0 0 537.3 62.8;" xml:space="preserve">
<style type="text/css">
	.st0{fill:#FFFFFF;}
	.st1{fill:#B3E3F3;}
	.st2{fill:#54C8E8;}
	.st3{fill:#2A7DE1;}
</style>
<path class="st0" d="M36.3,28.8c-2.4-1.2-4.9-1.8-9.5-2.3l-8.7-0.9c-3.7-0.4-5.1-1.2-5.1-3.2c0-2.6,3.1-4.2,8.3-4.2
	c2.6,0,4.6,0.4,6.2,1.2c1.5,0.8,2.2,1.7,2.8,3.7l0.1,0.4h9.7l-0.1-0.7c-0.7-3.9-2-6.1-4.7-7.9c-3.3-2.2-8.4-3.5-14-3.5
	c-11.2,0-18.2,4.7-18.2,12.2c0,5.8,4.2,9.3,12.2,10.2l10.1,1c4.1,0.4,5.8,1.6,5.8,3.8c0,2.9-3.3,4.5-9.1,4.5c-3.7,0-6.1-0.6-8.1-2.1
	c-1.4-1.1-2-2.2-2.3-4.2l-0.1-0.5H2.2l0.1,0.7c0.4,4.4,1.3,6.7,3.8,8.8c3.3,2.9,8.5,4.3,15.8,4.3c5.9,0,9.9-0.7,13.3-2.4
	c4-1.9,6.6-5.8,6.6-10C41.7,33.8,39.7,30.4,36.3,28.8z"/>
<path class="st0" d="M95.7,33.7c-0.5,1.3-1.4,3.6-2.2,5.8l-0.3,0.7c-1.1-3.2-1.3-3.8-2.5-6.5L85.9,22h-9.6l-11.1-0.1l-11.3,9.4V14.4
	h-8.7v34.3h8.7v-8.6l3.2-2.5l9.6,11.1h11.7L63.6,32.4l12.7-10.1l11.5,24.2c0.6,1.3,1.6,2.8,0.2,4.4c-1.3,1.5-2.5,1.7-3.3,1.7h-5.1
	v7.5h5c4.2,0,6.5-0.6,8-2.2c1.2-1.2,1.9-3,5.4-10.5L110.1,22h-9.6L95.7,33.7z"/>
<polygon class="st0" points="112.2,48.7 121.4,48.7 121.4,35.8 142.1,35.8 142.1,28.3 121.4,28.3 121.4,21.9 143.9,21.9 143.9,14.4 
	112.2,14.4 "/>
<rect x="146.4" y="22" class="st0" width="8.7" height="26.7"/>
<path class="st0" d="M179.1,21.1c-3.8,0-6.6,1.1-10.2,4V22h-8.7v26.7h8.7V34.8c0-4.5,2.6-7.1,7-7.1c1.8,0,3.4,0.6,4.6,1.6
	c1.3,1.1,1.8,2.7,1.8,5.3v14.1h8.7V34c0-4.9-0.7-7.2-2.7-9.3C186.2,22.4,182.8,21.1,179.1,21.1z"/>
<path class="st0" d="M226.3,45.4V31.1c0-3.1-0.8-5.6-2.3-6.9c-2.3-2.1-6.7-3.3-12.1-3.3c-5.6,0-10.4,1.3-12.9,3.5
	c-1.5,1.3-2.2,2.9-2.7,5.6l-0.1,0.7h8.8l0.1-0.5c0.4-2.7,2.2-3.8,6.2-3.8c3.9,0,6.3,1.2,6.3,3.2c0,1.6-0.8,2-8.7,2.7
	c-7.4,0.7-8.9,1-10.8,2c-2.6,1.4-4,3.7-4,6.6c0,2.4,0.9,4.4,2.7,6.1c2.1,1.8,5.3,2.8,9.5,2.8c5.2,0,8.4-1.1,11.5-4.1
	c0.1,1.3,0.2,1.8,0.4,2.6l0.1,0.4h8.6l-0.3-0.8C226.3,47.3,226.3,46.9,226.3,45.4z M215.2,42c-2.1,1.5-4.6,2.3-7,2.3
	c-2.7,0-4.8-1.5-4.8-3.5c0-1,0.6-2,1.5-2.4c1-0.4,2-0.6,5.6-0.9c3.8-0.4,4.8-0.6,7.1-1.4v1.6C217.7,39.4,216.8,40.9,215.2,42z"/>
<path class="st0" d="M250.2,21.1c-3.8,0-6.6,1.1-10.2,4V22h-8.7v26.7h8.7V34.8c0-4.5,2.6-7.1,7-7.1c1.8,0,3.4,0.6,4.6,1.6
	c1.3,1.1,1.8,2.7,1.8,5.3v14.1h8.7V34c0-4.9-0.7-7.2-2.7-9.3C257.4,22.4,253.9,21.1,250.2,21.1z"/>
<path class="st0" d="M289.1,38.3c-0.8,3.3-3.4,5.3-6.9,5.3c-4.5,0-7.7-3.5-7.7-8.4c0-4.9,3.2-8.1,7.9-8.1c3.4,0,5.6,1.6,6.5,4.7
	l0.1,0.4h8.8l-0.2-0.8c-0.6-2.5-1.5-4.2-3-6c-2.7-2.9-7.1-4.6-12.2-4.6c-10,0-16.7,5.9-16.7,14.7c0,3.4,1.1,6.6,3.2,9
	c2.7,3.3,7.3,5.1,13,5.1c8.8,0,14.7-4.1,16.3-11.2l0.2-0.7h-9.3L289.1,38.3z"/>
<rect x="301.8" y="22" class="st0" width="8.7" height="26.7"/>
<path class="st0" d="M346.4,45.4V31.1c0-3.1-0.8-5.6-2.3-6.9c-2.3-2.1-6.7-3.3-12.1-3.3c-5.6,0-10.4,1.3-12.9,3.5
	c-1.5,1.3-2.2,2.9-2.7,5.6l-0.1,0.7h8.8l0.1-0.5c0.4-2.7,2.2-3.8,6.2-3.8c3.9,0,6.3,1.2,6.3,3.2c0,1.6-0.8,2-8.7,2.7
	c-7.4,0.7-8.9,1-10.8,2c-2.6,1.4-4,3.8-4,6.6c0,2.4,0.9,4.4,2.7,6.1c2.1,1.8,5.3,2.8,9.5,2.8c5.2,0,8.4-1.1,11.5-4.1
	c0.1,1.3,0.1,1.8,0.4,2.6l0.1,0.4h8.6l-0.3-0.8C346.4,47.3,346.4,46.9,346.4,45.4z M335.3,42c-2.1,1.5-4.6,2.3-7,2.3
	c-2.7,0-4.8-1.5-4.8-3.5c0-1,0.6-2,1.5-2.4c1-0.4,2-0.6,5.6-0.9c3.8-0.4,4.8-0.6,7.1-1.4v1.6C337.8,39.4,337,40.9,335.3,42z"/>
<rect x="351.5" y="14.4" class="st0" width="8.7" height="34.3"/>
<path class="st0" d="M382,19.1c0,2.6-2.4,4.7-5.4,4.7c-3,0-5.5-2.1-5.5-4.7c0-2.6,2.4-4.7,5.5-4.7C379.6,14.4,382,16.5,382,19.1z
	 M372.2,19.1c0,2.1,2,3.8,4.3,3.8c2.4,0,4.3-1.7,4.3-3.8c0-2.1-1.9-3.8-4.3-3.8C374.2,15.3,372.2,16.9,372.2,19.1z M376.8,16.4
	c0.7,0,1.1,0.1,1.4,0.2c0.5,0.3,0.8,0.7,0.8,1.2c0,0.6-0.3,1-1,1.2c0.7,0.3,0.9,0.6,0.9,1.7c0,0.4,0.1,0.6,0.2,0.8h-1.4
	c-0.1-0.1-0.1-0.3-0.1-0.7c-0.1-0.8-0.1-1-0.3-1.2c-0.2-0.2-0.5-0.3-0.9-0.3h-0.7v2.1h-1.4v-5.2H376.8z M375.7,18.8h0.8
	c0.8,0,1.1-0.3,1.1-0.8s-0.3-0.8-1-0.8h-0.9V18.8z"/>
<polygon class="st1" points="515.2,14.4 398.9,14.4 387.4,3 535,3 "/>
<polygon class="st2" points="475.5,37.3 398.9,37.3 387.4,25.8 495.4,25.8 "/>
<polygon class="st3" points="435.9,60.2 398.9,60.2 387.4,48.7 455.7,48.7 "/>
</svg>
